<svg xmlns="http://www.w3.org/2000/svg" width="214" height="211.034" viewBox="0 0 214 211.034">
  <g id="グループ_273" data-name="グループ 273" transform="translate(1746.426 -655.021)">
    <circle id="楕円形_9" data-name="楕円形 9" cx="35.099" cy="35.099" r="35.099" transform="translate(-1739.458 776.234)" fill="none" stroke="#9ac147" stroke-linecap="round" stroke-linejoin="round" stroke-width="6"/>
    <line id="線_3" data-name="線 3" y1="38.971" x2="47.964" transform="translate(-1640.006 766.713)" fill="none" stroke="#9ac147" stroke-linecap="round" stroke-linejoin="round" stroke-width="6"/>
    <path id="パス_120" data-name="パス 120" d="M-1571.007,803.643h-70.2l-42.119,58.658,46.226.831" transform="translate(-21.036 -50.97)" fill="none" stroke="#9ac147" stroke-linecap="round" stroke-linejoin="round" stroke-width="6"/>
    <line id="線_4" data-name="線 4" x1="11.987" y1="65.342" transform="translate(-1665.358 737.56)" fill="none" stroke="#9ac147" stroke-linecap="round" stroke-linejoin="round" stroke-width="6"/>
    <circle id="楕円形_10" data-name="楕円形 10" cx="35.099" cy="35.099" r="35.099" transform="translate(-1609.592 776.234)" fill="none" stroke="#9ac147" stroke-linecap="round" stroke-linejoin="round" stroke-width="6"/>
    <path id="パス_121" data-name="パス 121" d="M-1504.354,847.333c-32.51-55.018-1.163-94.92-38.675-84.918" transform="translate(-70.138 -36.001)" fill="none" stroke="#9ac147" stroke-linecap="round" stroke-linejoin="round" stroke-width="6"/>
    <circle id="楕円形_11" data-name="楕円形 11" cx="10.003" cy="10.003" r="10.003" transform="translate(-1658.182 801.439)" fill="none" stroke="#9ac147" stroke-linecap="round" stroke-linejoin="round" stroke-width="6"/>
    <line id="線_5" data-name="線 5" x2="22.507" transform="translate(-1675.687 737.143)" fill="none" stroke="#9ac147" stroke-linecap="round" stroke-linejoin="round" stroke-width="6"/>
    <path id="パス_122" data-name="パス 122" d="M-1609.973,907.37l-5,8.852h-5" transform="translate(-43.207 -87.274)" fill="none" stroke="#9ac147" stroke-linecap="round" stroke-linejoin="round" stroke-width="6"/>
    <path id="パス_123" data-name="パス 123" d="M-1594.969,873.38l5-10.1h5" transform="translate(-51.96 -71.842)" fill="none" stroke="#9ac147" stroke-linecap="round" stroke-linejoin="round" stroke-width="6"/>
    <path id="パス_124" data-name="パス 124" d="M-1459.22,871.42a23.886,23.886,0,0,0-16.86-13.46" transform="translate(-93.571 -69.98)" fill="none" stroke="#9ac147" stroke-linecap="round" stroke-linejoin="round" stroke-width="6"/>
    <path id="パス_125" data-name="パス 125" d="M-1520.215,893.888a23.845,23.845,0,0,0,23.845,23.845" transform="translate(-78.123 -82.555)" fill="none" stroke="#9ac147" stroke-linecap="round" stroke-linejoin="round" stroke-width="6" stroke-dasharray="1.99 16.797"/>
    <path id="パス_126" data-name="パス 126" d="M-1706.312,860.683a23.847,23.847,0,0,0-13.7,21.583" transform="translate(-8.196 -70.934)" fill="none" stroke="#9ac147" stroke-linecap="round" stroke-linejoin="round" stroke-width="6" stroke-dasharray="1.99 16.797"/>
    <path id="パス_127" data-name="パス 127" d="M-1683.323,927.178a23.76,23.76,0,0,0,16.153-6.3" transform="translate(-21.036 -92)" fill="none" stroke="#9ac147" stroke-linecap="round" stroke-linejoin="round" stroke-width="6"/>
    <path id="パス_128" data-name="パス 128" d="M-1608.378,679.032a9.733,9.733,0,0,0-4.408,1.087,17.86,17.86,0,0,0-17.826-17.2,17.892,17.892,0,0,0-17.547,14.427,11.428,11.428,0,0,0-5.941-1.695,11.53,11.53,0,0,0-11.53,11.53,11.53,11.53,0,0,0,11.53,11.53h45.722a9.842,9.842,0,0,0,9.842-9.842A9.842,9.842,0,0,0-1608.378,679.032Z" transform="translate(-27.228 -1.718)" fill="none" stroke="#70c8f3" stroke-linecap="round" stroke-linejoin="round" stroke-width="6"/>
    <path id="パス_129" data-name="パス 129" d="M-1729.571,766.442a6.242,6.242,0,0,1,2.828.7A11.461,11.461,0,0,1-1715.3,756.1a11.481,11.481,0,0,1,11.259,9.258,7.331,7.331,0,0,1,3.812-1.087,7.4,7.4,0,0,1,7.4,7.4,7.4,7.4,0,0,1-7.4,7.4h-29.338a6.315,6.315,0,0,1-6.315-6.315A6.315,6.315,0,0,1-1729.571,766.442Z" transform="translate(-2.639 -34.331)" fill="none" stroke="#70c8f3" stroke-linecap="round" stroke-linejoin="round" stroke-width="6"/>
    <path id="パス_130" data-name="パス 130" d="M-1505.725,712.867a7.642,7.642,0,0,1,3.461.853,14.023,14.023,0,0,1,14-13.5,14.047,14.047,0,0,1,13.775,11.327,8.972,8.972,0,0,1,4.664-1.331,9.053,9.053,0,0,1,9.053,9.053,9.053,9.053,0,0,1-9.053,9.052h-35.9a7.727,7.727,0,0,1-7.727-7.727A7.727,7.727,0,0,1-1505.725,712.867Z" transform="translate(-80.49 -14.771)" fill="none" stroke="#70c8f3" stroke-linecap="round" stroke-linejoin="round" stroke-width="6"/>
    <path id="パス_131" data-name="パス 131" d="M-1538.248,659.5c7.291-4,9.034.937,11.759,4.573,2.726-3.637,4.469-8.571,11.759-4.573" transform="translate(-71.812)" fill="none" stroke="#70c8f3" stroke-linecap="round" stroke-linejoin="round" stroke-width="6"/>
    <line id="線_6" data-name="線 6" x2="208" transform="translate(-1743.426 846.432)" fill="none" stroke="#9ac147" stroke-linecap="round" stroke-linejoin="round" stroke-width="6"/>
    <line id="線_7" data-name="線 7" x2="96.275" transform="translate(-1662.026 863.055)" fill="none" stroke="#9ac147" stroke-linecap="round" stroke-linejoin="round" stroke-width="6"/>
    <line id="線_8" data-name="線 8" x2="41.07" transform="translate(-1713.099 863.055)" fill="none" stroke="#9ac147" stroke-linecap="round" stroke-linejoin="round" stroke-width="6" stroke-dasharray="1.99 16.797"/>
  </g>
</svg>
